<svg xmlns="http://www.w3.org/2000/svg" viewBox="0 0 800 460"><defs><linearGradient id="wall" x1="0" y1="0" x2="0" y2="1"><stop offset="0" stop-color="#FFF5DA"/><stop offset="1" stop-color="#FFFDF7"/></linearGradient><filter id="shadow" x="-20%" y="-20%" width="140%" height="140%"><feDropShadow dx="0" dy="6" stdDeviation="6" flood-color="#173b6c" flood-opacity=".14"/></filter></defs><rect width="800" height="460" rx="28" fill="url(#wall)"/><rect x="0" y="345" width="800" height="115" fill="#EACCA9"/><path d="M0 380H800M0 420H800" stroke="#D9B58D" stroke-width="3"/><g filter="url(#shadow)"><rect x="620" y="55" width="120" height="100" rx="10" fill="#8DD7FF" stroke="#fff" stroke-width="10"/><path d="M680 60V150M625 105H735" stroke="#fff" stroke-width="7"/></g><g filter="url(#shadow)"><rect x="70" y="220" width="570" height="100" rx="12" fill="#91C969"/><rect x="70" y="198" width="570" height="26" rx="6" fill="#E2BA83"/><rect x="90" y="235" width="100" height="70" rx="5" fill="#6F8190"/><circle cx="115" cy="250" r="8"/><circle cx="165" cy="250" r="8"/><rect x="450" y="85" width="155" height="135" rx="10" fill="#DCE3E9"/><line x1="527" y1="85" x2="527" y2="220" stroke="#AAB7C3" stroke-width="6"/><rect x="240" y="110" width="115" height="88" rx="8" fill="#9BCB70"/><rect x="370" y="110" width="115" height="88" rx="8" fill="#9BCB70"/><path d="M280 170h165" stroke="#8A6A4A" stroke-width="8"/></g><g transform="translate(330 315)" filter="url(#shadow)"><rect x="-70" y="-35" width="140" height="55" rx="12" fill="#F28D34"/><rect x="-35" y="-75" width="70" height="48" rx="7" fill="#FFB15B"/><rect x="38" y="-66" width="18" height="32" fill="#46596D"/><circle cx="-45" cy="28" r="17" fill="#34495E"/><circle cx="45" cy="28" r="17" fill="#34495E"/><circle cx="-45" cy="28" r="7" fill="#A9BED0"/><circle cx="45" cy="28" r="7" fill="#A9BED0"/></g></svg>