<svg xmlns="http://www.w3.org/2000/svg" viewBox="0 0 800 460"><defs><linearGradient id="wall" x1="0" y1="0" x2="0" y2="1"><stop offset="0" stop-color="#FFF5FA"/><stop offset="1" stop-color="#FFFDF7"/></linearGradient><filter id="shadow" x="-20%" y="-20%" width="140%" height="140%"><feDropShadow dx="0" dy="6" stdDeviation="6" flood-color="#173b6c" flood-opacity=".14"/></filter></defs><rect width="800" height="460" rx="28" fill="url(#wall)"/><ellipse cx="400" cy="408" rx="150" ry="28" fill="#DDE8F5"/><circle cx="400" cy="115" r="60" fill="#F2C19D"/><path d="M340 112q18-85 108-42q28 22 15 77q-25-30-60-42q-22 28-63 7z" fill="#704334"/><circle cx="380" cy="115" r="5"/><circle cx="420" cy="115" r="5"/><path d="M380 142q20 16 40 0" fill="none" stroke="#9B5947" stroke-width="5"/><path d="M350 185l50 20 50-20 72 40-30 55-42-20v120H350V260l-42 20-30-55z" fill="#FF993B"/><path d="M365 300h70l18 90h-45l-8-55-8 55h-45z" fill="#547FB7"/></svg>